<svg width="22" height="22" viewBox="0 0 22 22" fill="none" xmlns="http://www.w3.org/2000/svg">
<path d="M1.83301 2.75V10.0833L7.33301 6.41667L1.83301 2.75Z" fill="#F7F7F7"/>
<path d="M2.74967 13.2917H19.2497C19.4928 13.2917 19.7259 13.1951 19.8979 13.0232C20.0698 12.8513 20.1663 12.6181 20.1663 12.375C20.1663 12.1319 20.0698 11.8987 19.8979 11.7268C19.7259 11.5549 19.4928 11.4583 19.2497 11.4583H2.74967C2.50656 11.4583 2.2734 11.5549 2.10149 11.7268C1.92958 11.8987 1.83301 12.1319 1.83301 12.375C1.83301 12.6181 1.92958 12.8513 2.10149 13.0232C2.2734 13.1951 2.50656 13.2917 2.74967 13.2917ZM9.16634 6.41667C9.16634 6.65978 9.26292 6.89294 9.43483 7.06485C9.60674 7.23676 9.83989 7.33333 10.083 7.33333H19.2497C19.4928 7.33333 19.7259 7.23676 19.8979 7.06485C20.0698 6.89294 20.1663 6.65978 20.1663 6.41667C20.1663 6.17355 20.0698 5.94039 19.8979 5.76849C19.7259 5.59658 19.4928 5.5 19.2497 5.5H10.083C9.83989 5.5 9.60674 5.59658 9.43483 5.76849C9.26292 5.94039 9.16634 6.17355 9.16634 6.41667ZM2.74967 19.25H19.2497C19.4928 19.25 19.7259 19.1534 19.8979 18.9815C20.0698 18.8096 20.1663 18.5764 20.1663 18.3333C20.1663 18.0902 20.0698 17.8571 19.8979 17.6852C19.7259 17.5132 19.4928 17.4167 19.2497 17.4167H2.74967C2.50656 17.4167 2.2734 17.5132 2.10149 17.6852C1.92958 17.8571 1.83301 18.0902 1.83301 18.3333C1.83301 18.5764 1.92958 18.8096 2.10149 18.9815C2.2734 19.1534 2.50656 19.25 2.74967 19.25Z" fill="#F7F7F7"/>
</svg>
