<svg width="40" height="40" viewBox="0 0 40 40" fill="none" xmlns="http://www.w3.org/2000/svg">
<circle cx="20.0769" cy="19.9233" r="19.9231" fill="#F7F7F7"/>
<mask id="mask0_1_2237" style="mask-type:alpha" maskUnits="userSpaceOnUse" x="6" y="5" width="29" height="30">
<rect x="6.17242" y="5.87891" width="28.2244" height="28.2244" fill="#9371DC"/>
</mask>
<g mask="url(#mask0_1_2237)">
<path d="M15.5797 26.0743V13.9026C15.5797 13.5694 15.6973 13.2901 15.9325 13.0647C16.1677 12.8393 16.4421 12.7266 16.7557 12.7266C16.8537 12.7266 16.9566 12.7413 17.0644 12.7707C17.1722 12.8001 17.2751 12.8442 17.3731 12.903L26.9576 18.9888C27.134 19.1064 27.2663 19.2534 27.3545 19.4298C27.4427 19.6062 27.4868 19.7925 27.4868 19.9885C27.4868 20.1845 27.4427 20.3707 27.3545 20.5471C27.2663 20.7235 27.134 20.8705 26.9576 20.9881L17.3731 27.0739C17.2751 27.1327 17.1722 27.1768 17.0644 27.2062C16.9566 27.2356 16.8537 27.2503 16.7557 27.2503C16.4421 27.2503 16.1677 27.1376 15.9325 26.9122C15.6973 26.6868 15.5797 26.4075 15.5797 26.0743Z" fill="#0F0622"/>
</g>
</svg>
