<svg width="22" height="23" viewBox="0 0 22 23" fill="none" xmlns="http://www.w3.org/2000/svg">
<path d="M21.3203 9.88691L12.5703 1.13691C12.2421 0.808973 11.7972 0.624756 11.3333 0.624756C10.8693 0.624756 10.4244 0.808973 10.0962 1.13691L1.34623 9.88691C1.18294 10.049 1.0535 10.2419 0.965436 10.4545C0.877372 10.667 0.832444 10.895 0.833263 11.125V21.625C0.833263 21.8571 0.92545 22.0797 1.08954 22.2438C1.25364 22.4079 1.4762 22.5 1.70826 22.5H8.70826C8.94033 22.5 9.16289 22.4079 9.32698 22.2438C9.49108 22.0797 9.58326 21.8571 9.58326 21.625V15.5H13.0833V21.625C13.0833 21.8571 13.1755 22.0797 13.3395 22.2438C13.5036 22.4079 13.7262 22.5 13.9583 22.5H20.9583C21.1903 22.5 21.4129 22.4079 21.577 22.2438C21.7411 22.0797 21.8333 21.8571 21.8333 21.625V11.125C21.8341 10.895 21.7892 10.667 21.7011 10.4545C21.613 10.2419 21.4836 10.049 21.3203 9.88691ZM20.0833 20.75H14.8333V14.625C14.8333 14.393 14.7411 14.1704 14.577 14.0063C14.4129 13.8422 14.1903 13.75 13.9583 13.75H8.70826C8.4762 13.75 8.25364 13.8422 8.08955 14.0063C7.92545 14.1704 7.83326 14.393 7.83326 14.625V20.75H2.58326V11.125L11.3333 2.37504L20.0833 11.125V20.75Z" fill="#999999"/>
</svg>
