<svg width="29" height="28" viewBox="0 0 29 28" fill="none" xmlns="http://www.w3.org/2000/svg">
<path d="M14.5 18.375C16.9162 18.375 18.875 16.4162 18.875 14C18.875 11.5838 16.9162 9.625 14.5 9.625C12.0838 9.625 10.125 11.5838 10.125 14C10.125 16.4162 12.0838 18.375 14.5 18.375Z" stroke="#F7F7F7" stroke-width="1.75" stroke-linecap="round" stroke-linejoin="round"/>
<path d="M5.03134 19.4786C4.54787 18.6459 4.17748 17.7524 3.92993 16.8219L5.76524 14.525C5.74446 14.1738 5.74446 13.8218 5.76524 13.4706L3.93103 11.1738C4.17815 10.2431 4.54778 9.3493 5.03024 8.51594L7.95165 8.18781C8.18494 7.92498 8.43366 7.67626 8.69649 7.44297L9.02462 4.52266C9.85679 4.04249 10.7491 3.67506 11.6781 3.43L13.9749 5.26531C14.3261 5.24453 14.6782 5.24453 15.0293 5.26531L17.3262 3.43109C18.2569 3.67822 19.1506 4.04785 19.984 4.53031L20.3121 7.45172C20.575 7.68501 20.8237 7.93373 21.057 8.19656L23.9773 8.52469C24.4607 9.35743 24.8311 10.2509 25.0787 11.1814L23.2434 13.4783C23.2642 13.8294 23.2642 14.1815 23.2434 14.5327L25.0776 16.8295C24.8322 17.76 24.4644 18.6537 23.9838 19.4873L21.0624 19.8155C20.8291 20.0783 20.5804 20.327 20.3176 20.5603L19.9895 23.4806C19.1567 23.9641 18.2633 24.3345 17.3327 24.582L15.0359 22.7467C14.6847 22.7675 14.3326 22.7675 13.9815 22.7467L11.6846 24.5809C10.7542 24.3355 9.86045 23.9677 9.02681 23.4872L8.69868 20.5658C8.43585 20.3325 8.18713 20.0838 7.95384 19.8209L5.03134 19.4786Z" stroke="#F7F7F7" stroke-width="1.75" stroke-linecap="round" stroke-linejoin="round"/>
</svg>
