<svg width="28" height="28" viewBox="0 0 28 28" fill="none" xmlns="http://www.w3.org/2000/svg">
<path d="M24.5 15.75V22.75C24.5 22.9821 24.4078 23.2046 24.2437 23.3687C24.0796 23.5328 23.8571 23.625 23.625 23.625H4.375C4.14294 23.625 3.92038 23.5328 3.75628 23.3687C3.59219 23.2046 3.5 22.9821 3.5 22.75V15.75C3.5 15.5179 3.59219 15.2954 3.75628 15.1313C3.92038 14.9672 4.14294 14.875 4.375 14.875C4.60706 14.875 4.82962 14.9672 4.99372 15.1313C5.15781 15.2954 5.25 15.5179 5.25 15.75V21.875H22.75V15.75C22.75 15.5179 22.8422 15.2954 23.0063 15.1313C23.1704 14.9672 23.3929 14.875 23.625 14.875C23.8571 14.875 24.0796 14.9672 24.2437 15.1313C24.4078 15.2954 24.5 15.5179 24.5 15.75ZM13.3809 16.3691C13.4622 16.4504 13.5587 16.515 13.6649 16.559C13.7712 16.603 13.885 16.6257 14 16.6257C14.115 16.6257 14.2288 16.603 14.3351 16.559C14.4413 16.515 14.5378 16.4504 14.6191 16.3691L18.9941 11.9941C19.1166 11.8717 19.2 11.7157 19.2338 11.5459C19.2677 11.3761 19.2503 11.2 19.184 11.0401C19.1178 10.8801 19.0055 10.7434 18.8615 10.6472C18.7175 10.5511 18.5482 10.4999 18.375 10.5H14.875V3.5C14.875 3.26794 14.7828 3.04538 14.6187 2.88128C14.4546 2.71719 14.2321 2.625 14 2.625C13.7679 2.625 13.5454 2.71719 13.3813 2.88128C13.2172 3.04538 13.125 3.26794 13.125 3.5V10.5H9.625C9.45184 10.4999 9.28254 10.5511 9.13852 10.6472C8.9945 10.7434 8.88224 10.8801 8.81596 11.0401C8.74967 11.2 8.73234 11.3761 8.76616 11.5459C8.79998 11.7157 8.88343 11.8717 9.00594 11.9941L13.3809 16.3691Z" fill="#F7F7F7"/>
</svg>
