<svg width="26" height="25" viewBox="0 0 26 25" fill="none" xmlns="http://www.w3.org/2000/svg">
<circle cx="12.6924" cy="12.5982" r="10.6299" fill="#282234"/>
<path d="M17.2892 9.52784C17.1979 9.61719 17.0519 9.61719 16.9607 9.52784L15.4391 8.03834C15.3451 7.94625 15.3451 7.79485 15.4391 7.70277L15.8771 7.27399C16.0416 7.11302 16.2471 7.0349 16.4938 7.03963C16.7404 7.04437 16.946 7.12722 17.1104 7.2882L17.7343 7.89896C17.8988 8.05994 17.981 8.25879 17.981 8.49552C17.981 8.73225 17.8988 8.9311 17.7343 9.09208L17.2892 9.52784ZM7.78098 17.4439C7.65523 17.4439 7.55125 17.4037 7.46903 17.3232C7.38681 17.2427 7.3457 17.1409 7.3457 17.0178V15.7963C7.3457 15.7394 7.35538 15.6874 7.37472 15.64C7.39407 15.5927 7.42792 15.5453 7.47629 15.498L14.4941 8.6279C14.5854 8.53855 14.7313 8.53855 14.8226 8.6279L16.3441 10.1174C16.4382 10.2095 16.4382 10.3609 16.3441 10.453L9.33347 17.3161C9.2851 17.3634 9.23674 17.3966 9.18838 17.4155C9.14001 17.4344 9.08681 17.4439 9.02877 17.4439H7.78098Z" fill="#9D77EE"/>
</svg>
