<svg width="34" height="36" viewBox="0 0 34 36" fill="none" xmlns="http://www.w3.org/2000/svg">
<mask id="mask0_1226_820" style="mask-type:alpha" maskUnits="userSpaceOnUse" x="0" y="0" width="37" height="36">
<rect x="0.442078" y="0.0441895" width="36.5185" height="35.8778" fill="#602AE1"/>
</mask>
<g mask="url(#mask0_1226_820)">
<path d="M15.8622 31.703C15.9149 33.0003 16.9819 34.0249 18.2803 34.0249C19.5787 34.0249 20.6458 33.0003 20.6985 31.703L21.15 20.5891C21.2517 18.0851 22.3211 15.7181 24.1329 13.9866L31.6573 6.79586L30.9664 6.0729L31.6573 6.79586C32.5606 5.93263 32.7002 4.53995 31.9861 3.51466C31.1809 2.35844 29.5873 2.08076 28.4385 2.8965L29.0174 3.71186L28.4385 2.8965L19.406 9.3101C19.3533 9.34749 19.2903 9.36757 19.2258 9.36757C18.939 9.36757 18.8048 9.01263 19.0198 8.82289L21.0464 7.03483C22.0151 6.1802 22.1908 4.73587 21.4552 3.67395C20.5879 2.42175 18.8229 2.20545 17.6789 3.21117L12.0665 8.14512C12.3324 7.53987 12.4621 6.87768 12.4621 6.17177C12.4621 5.04108 12.1294 4.02254 11.4371 3.17055C10.7409 2.31361 9.82736 1.81512 8.73487 1.81512C7.64238 1.81512 6.72888 2.31361 6.03262 3.17055C5.34037 4.02254 5.0076 5.04108 5.0076 6.17177C5.0076 7.30245 5.34037 8.321 6.03262 9.17299C6.39854 9.62335 6.82446 9.97471 7.30482 10.2067H3.59501C2.11581 10.2067 0.916687 11.4059 0.916687 12.8851C0.916687 14.3643 2.11582 15.5634 3.59501 15.5634H10.445C11.0052 15.5634 11.5614 15.6583 12.09 15.8442C14.0059 16.5179 15.3173 18.2918 15.3998 20.321L15.8622 31.703Z" stroke="#F7F7F7" stroke-width="2"/>
</g>
</svg>
