<svg width="70" height="70" viewBox="0 0 70 70" fill="none" xmlns="http://www.w3.org/2000/svg">
<circle cx="34.5472" cy="34.5472" r="34.5472" fill="#005149"/>
<path d="M34.4584 19.1466C39.3717 19.1466 43.7938 21.3388 44.8521 26.6301H41.1103C40.1654 23.4553 37.0662 22.397 34.3072 22.397C32.1906 22.397 28.4867 23.3419 28.4867 26.4033C28.4867 28.8222 30.4143 30.0317 32.9465 30.5986L36.1213 31.3167C40.3166 32.2238 45.3434 33.8112 45.3434 39.3293C45.3434 44.6962 40.3544 47.5309 34.9119 47.5309C28.4489 47.5309 24.367 44.0159 23.6489 38.5356H27.4284C28.1465 42.3151 30.7922 44.2805 34.9875 44.2805C39.0316 44.2805 41.3749 42.3529 41.3749 39.6695C41.3749 36.797 38.9182 35.5876 35.4788 34.8317L32.0772 34.1136C28.3355 33.2821 24.556 31.2033 24.556 26.6301C24.556 21.4144 30.0363 19.1466 34.4584 19.1466Z" fill="white"/>
</svg>
