<svg width="22" height="23" viewBox="0 0 22 23" fill="none" xmlns="http://www.w3.org/2000/svg">
<path d="M21.8334 11.1249V21.6249C21.8334 21.857 21.7412 22.0795 21.5771 22.2436C21.413 22.4077 21.1904 22.4999 20.9584 22.4999H14.8334C14.6013 22.4999 14.3787 22.4077 14.2147 22.2436C14.0506 22.0795 13.9584 21.857 13.9584 21.6249V15.9374C13.9584 15.8214 13.9123 15.7101 13.8302 15.6281C13.7482 15.546 13.6369 15.4999 13.5209 15.4999H9.14587C9.02984 15.4999 8.91856 15.546 8.83651 15.6281C8.75447 15.7101 8.70837 15.8214 8.70837 15.9374V21.6249C8.70837 21.857 8.61619 22.0795 8.45209 22.2436C8.288 22.4077 8.06544 22.4999 7.83337 22.4999H1.70837C1.47631 22.4999 1.25375 22.4077 1.08966 22.2436C0.925561 22.0795 0.833374 21.857 0.833374 21.6249V11.1249C0.833589 10.6609 1.0181 10.2159 1.34634 9.88789L10.0963 1.13789C10.4245 0.80995 10.8694 0.625732 11.3334 0.625732C11.7973 0.625732 12.2422 0.80995 12.5704 1.13789L21.3204 9.88789C21.6486 10.2159 21.8332 10.6609 21.8334 11.1249Z" fill="#F7F7F7"/>
</svg>
