<svg width="25" height="14" viewBox="0 0 25 14" fill="none" xmlns="http://www.w3.org/2000/svg">
<path d="M22.155 13.5362L12.875 3.98223L3.59499 13.5362C3.29228 13.8372 2.88686 14.0037 2.46604 13.9999C2.04522 13.9962 1.64267 13.8224 1.34509 13.516C1.04751 13.2097 0.878717 12.7952 0.875061 12.362C0.871404 11.9288 1.03318 11.5114 1.32554 11.1997L11.7355 0.48253C11.8847 0.328197 12.0624 0.20604 12.2581 0.123198C12.4537 0.0403547 12.6634 -0.00151253 12.875 4.1008e-05C13.0865 -0.00105476 13.2961 0.0410233 13.4917 0.12384C13.6873 0.206656 13.865 0.328568 14.0145 0.48253L24.4245 11.1997C24.7168 11.5114 24.8786 11.9288 24.8749 12.362C24.8713 12.7952 24.7025 13.2097 24.4049 13.516C24.1073 13.8224 23.7048 13.9962 23.284 13.9999C22.8631 14.0037 22.4577 13.8372 22.155 13.5362Z" fill="#F7F7F7"/>
</svg>
