<svg width="24" height="25" viewBox="0 0 24 25" fill="none" xmlns="http://www.w3.org/2000/svg">
<path d="M19.875 19.25C19.8751 19.7427 19.7673 20.2293 19.5593 20.6758C19.3512 21.1223 19.048 21.5179 18.6708 21.8347C18.2936 22.1516 17.8516 22.382 17.3759 22.5099C16.9002 22.6377 16.4022 22.6598 15.917 22.5748C15.4318 22.4897 14.9711 22.2994 14.5673 22.0173C14.1635 21.7352 13.8263 21.3681 13.5794 20.9418C13.3325 20.5156 13.182 20.0404 13.1383 19.5497C13.0946 19.0591 13.1589 18.5648 13.3266 18.1016L8.35782 14.9094C7.88327 15.3749 7.28182 15.6899 6.62893 15.8149C5.97604 15.9398 5.30079 15.8692 4.68788 15.6119C4.07497 15.3545 3.5517 14.9219 3.18373 14.3683C2.81575 13.8147 2.61945 13.1648 2.61945 12.5C2.61945 11.8353 2.81575 11.1854 3.18373 10.6318C3.5517 10.0782 4.07497 9.64556 4.68788 9.38821C5.30079 9.13087 5.97604 9.06025 6.62893 9.18522C7.28182 9.31019 7.88327 9.62518 8.35782 10.0907L13.3266 6.90317C13.042 6.12134 13.0556 5.26208 13.3645 4.48959C13.6735 3.7171 14.2563 3.08553 15.0015 2.71557C15.7467 2.34562 16.6021 2.26321 17.4043 2.48409C18.2064 2.70498 18.899 3.21367 19.3498 3.91297C19.8006 4.61227 19.9779 5.45314 19.8479 6.27491C19.7178 7.09668 19.2896 7.84173 18.6449 8.36769C18.0003 8.89366 17.1844 9.16366 16.3533 9.1261C15.5221 9.08855 14.734 8.74607 14.1394 8.16411L9.17063 11.3563C9.43917 12.0984 9.43917 12.9111 9.17063 13.6532L14.1394 16.8454C14.6138 16.3811 15.2146 16.067 15.8665 15.9424C16.5185 15.8178 17.1928 15.8882 17.805 16.1449C18.4171 16.4016 18.94 16.833 19.3082 17.3853C19.6764 17.9376 19.8736 18.5863 19.875 19.25Z" fill="#F7F7F7"/>
</svg>
